<?xml version="1.0" encoding="utf-8"?>
<!-- Generator: Adobe Illustrator 23.0.4, SVG Export Plug-In . SVG Version: 6.00 Build 0)  -->
<svg version="1.1" id="CAEN" xmlns="http://www.w3.org/2000/svg" xmlns:xlink="http://www.w3.org/1999/xlink" x="0px" y="0px"
	 width="98.747px" height="26.774px" viewBox="0 0 98.747 26.774" enable-background="new 0 0 98.747 26.774" xml:space="preserve">
<g>
	<g>
		<path fill="#FFFFFF" d="M38.163,20.422h-4.733l-1.137,3.356h-2.005l4.483-12.419h2.083l4.483,12.419h-2.039L38.163,20.422z
			 M33.919,18.873h3.752l-1.85-5.447H35.77L33.919,18.873z M51.021,19.252c0,2.865-1.506,4.682-3.778,4.682
			c-1.299,0-2.332-0.637-2.848-1.645h-0.044v4.484h-1.858V14.725h1.799v1.559h0.034c0.533-1.042,1.575-1.705,2.883-1.705
			C49.506,14.578,51.021,16.386,51.021,19.252z M49.111,19.252c0-1.894-0.921-3.107-2.393-3.107c-1.42,0-2.375,1.24-2.375,3.107
			c0,1.885,0.946,3.106,2.375,3.106C48.19,22.359,49.111,21.154,49.111,19.252z M60.986,19.252c0,2.865-1.506,4.682-3.778,4.682
			c-1.299,0-2.332-0.637-2.848-1.645h-0.044v4.484h-1.858V14.725h1.799v1.559h0.034c0.533-1.042,1.575-1.705,2.883-1.705
			C59.471,14.578,60.986,16.386,60.986,19.252z M59.076,19.252c0-1.894-0.921-3.107-2.393-3.107c-1.42,0-2.375,1.24-2.375,3.107
			c0,1.885,0.946,3.106,2.375,3.106C58.155,22.359,59.076,21.154,59.076,19.252z M62.492,11.36h1.859v12.419h-1.859V11.36z
			 M74.028,21.119c-0.259,1.652-1.824,2.831-3.898,2.831c-2.659,0-4.269-1.798-4.269-4.655c0-2.84,1.635-4.733,4.19-4.733
			c2.514,0,4.08,1.772,4.08,4.519v0.637h-6.395v0.111c0,1.575,0.946,2.616,2.436,2.616c1.059,0,1.842-0.534,2.091-1.325H74.028z
			 M67.746,18.417h4.526c-0.043-1.386-0.921-2.358-2.221-2.358C68.752,16.059,67.84,17.049,67.746,18.417z M81.308,23.779V13.022
			h-3.804V11.36h9.526v1.662h-3.795v10.757H81.308z M92.207,23.779L87.774,11.36h2.092l3.382,10.25h0.052l3.391-10.25h2.057
			l-4.432,12.419H92.207z"/>
		<path fill="#FFFFFF" d="M33.084,7.536h-0.877L30.6,1.569h0.963l1.096,4.569h0.059l1.244-4.569h0.859l1.254,4.569h0.058
			l1.092-4.569h0.964l-1.613,5.967h-0.873L34.42,3.157h-0.059L33.084,7.536z M38.618,6.263c0-0.811,0.604-1.278,1.676-1.344
			l1.219-0.07V4.459c0-0.476-0.313-0.744-0.922-0.744c-0.496,0-0.839,0.182-0.938,0.5h-0.86c0.092-0.773,0.819-1.27,1.84-1.27
			c1.129,0,1.767,0.562,1.767,1.513v3.077h-0.856V6.903h-0.07C41.203,7.354,40.71,7.61,40.12,7.61
			C39.25,7.61,38.618,7.085,38.618,6.263z M41.512,5.878V5.501l-1.1,0.07c-0.62,0.042-0.901,0.252-0.901,0.649
			c0,0.405,0.352,0.641,0.835,0.641C41.016,6.862,41.512,6.436,41.512,5.878z M44.993,1.912v1.142h0.975v0.749h-0.975v2.315
			c0,0.472,0.193,0.678,0.637,0.678c0.136,0,0.215-0.008,0.338-0.021v0.74c-0.145,0.024-0.31,0.045-0.483,0.045
			c-0.988,0-1.381-0.348-1.381-1.216V3.802h-0.716V3.054h0.716V1.912H44.993z M50.04,4.505c-0.104-0.438-0.468-0.765-1.062-0.765
			c-0.745,0-1.199,0.57-1.199,1.53c0,0.976,0.459,1.559,1.199,1.559c0.562,0,0.946-0.256,1.062-0.74h0.863
			c-0.115,0.906-0.811,1.534-1.922,1.534c-1.311,0-2.113-0.885-2.113-2.353c0-1.443,0.798-2.324,2.109-2.324
			c1.129,0,1.811,0.657,1.926,1.559H50.04z M52.084,1.275h0.881v2.481h0.07c0.219-0.505,0.694-0.807,1.372-0.807
			c0.96,0,1.551,0.608,1.551,1.679v2.907h-0.889V4.848c0-0.719-0.335-1.083-0.963-1.083c-0.729,0-1.133,0.459-1.133,1.142v2.63
			h-0.89V1.275z M59.551,5.283c0-1.452,0.811-2.336,2.126-2.336c1.311,0,2.121,0.885,2.121,2.336c0,1.459-0.806,2.34-2.121,2.34
			C60.358,7.623,59.551,6.742,59.551,5.283z M62.885,5.283c0-0.976-0.439-1.547-1.208-1.547c-0.773,0-1.208,0.571-1.208,1.547
			c0,0.984,0.435,1.55,1.208,1.55C62.446,6.833,62.885,6.263,62.885,5.283z M64.991,3.033h0.855v0.715h0.066
			c0.22-0.5,0.666-0.802,1.344-0.802c1.006,0,1.56,0.604,1.56,1.675v2.915h-0.89V4.844c0-0.724-0.314-1.083-0.971-1.083
			c-0.658,0-1.076,0.438-1.076,1.141v2.634h-0.889V3.033z"/>
	</g>
	<g>
		<path fill="#C8C8C8" d="M13.843,0h-2.522L7.87,0C7.825,0,7.78,0,7.735,0C7.48,0,7.224,0,6.968,0.002
			C6.715,0.003,6.462,0.006,6.209,0.013C5.658,0.028,5.102,0.061,4.556,0.159C4.003,0.258,3.488,0.42,2.986,0.676
			C2.492,0.928,2.04,1.257,1.648,1.649c-0.392,0.392-0.72,0.844-0.972,1.338C0.42,3.49,0.258,4.005,0.158,4.559
			C0.06,5.104,0.028,5.66,0.013,6.212c-0.007,0.253-0.01,0.506-0.011,0.759C0,7.272,0,7.572,0,7.873l0,3.453v2.513l0,3.453
			c0,0.301,0,0.601,0.002,0.902c0.002,0.253,0.004,0.506,0.011,0.759c0.015,0.552,0.047,1.108,0.145,1.653
			c0.099,0.553,0.262,1.068,0.518,1.571c0.251,0.494,0.58,0.946,0.972,1.338c0.392,0.392,0.844,0.721,1.338,0.972
			c0.503,0.256,1.018,0.419,1.571,0.518c0.545,0.098,1.101,0.13,1.652,0.145c0.253,0.007,0.506,0.01,0.759,0.011
			c0.263,0.002,0.525,0.002,0.788,0.002c0.038,0,0.075,0,0.113,0l3.451,0h2.522l3.451,0c0.043,0,0.085,0,0.128,0
			c0.258,0,0.515,0,0.773-0.002c0.253-0.002,0.506-0.004,0.759-0.011c0.551-0.015,1.108-0.047,1.653-0.145
			c0.553-0.099,1.068-0.262,1.57-0.518c0.494-0.252,0.946-0.58,1.338-0.972c0.392-0.392,0.72-0.844,0.972-1.338
			c0.256-0.503,0.418-1.018,0.518-1.572c0.098-0.545,0.13-1.101,0.145-1.653c0.007-0.253,0.01-0.506,0.011-0.759
			c0.002-0.301,0.002-0.601,0.002-0.902l0-3.453v-2.513l0-3.453c0-0.301,0-0.601-0.002-0.902c-0.002-0.253-0.004-0.506-0.011-0.759
			c-0.015-0.552-0.047-1.108-0.145-1.653c-0.099-0.553-0.262-1.068-0.518-1.571c-0.251-0.494-0.58-0.946-0.972-1.338
			c-0.392-0.392-0.844-0.721-1.338-0.972c-0.503-0.256-1.018-0.419-1.571-0.518c-0.545-0.098-1.101-0.13-1.652-0.145
			c-0.253-0.007-0.506-0.01-0.759-0.011C17.933,0,17.67,0,17.407,0c-0.037,0-0.075,0-0.112,0L13.843,0L13.843,0z"/>
		<linearGradient id="SVGID_1_" gradientUnits="userSpaceOnUse" x1="12.582" y1="24.5289" x2="12.582" y2="0.4557">
			<stop  offset="0" style="stop-color:#111111"/>
			<stop  offset="1" style="stop-color:#333333"/>
		</linearGradient>
		<path fill="url(#SVGID_1_)" d="M13.843,0.45L13.843,0.45l3.451,0h0.112l0.787,0.002c0.25,0.002,0.5,0.004,0.75,0.011
			c0.474,0.013,1.033,0.039,1.585,0.138c0.532,0.096,1.006,0.251,1.447,0.476c0.452,0.23,0.864,0.53,1.224,0.889
			c0.36,0.36,0.659,0.772,0.889,1.224c0.224,0.441,0.38,0.914,0.476,1.447c0.099,0.552,0.126,1.112,0.138,1.586
			c0.007,0.25,0.01,0.5,0.011,0.75c0.002,0.28,0.002,0.559,0.002,0.839v0.06l0,3.453v2.513l0,3.453v0.056
			c0,0.281,0,0.562-0.002,0.843c-0.002,0.25-0.004,0.5-0.011,0.75c-0.013,0.474-0.039,1.034-0.138,1.585
			c-0.096,0.533-0.251,1.006-0.476,1.447c-0.23,0.453-0.529,0.865-0.889,1.224c-0.36,0.36-0.771,0.659-1.224,0.889
			c-0.441,0.225-0.914,0.38-1.446,0.476c-0.552,0.099-1.111,0.126-1.585,0.139c-0.25,0.007-0.5,0.01-0.75,0.011l-0.771,0.002h-0.128
			l-3.451,0h-2.522l-3.451,0H7.756l-0.785-0.002c-0.25-0.002-0.5-0.004-0.75-0.011c-0.474-0.013-1.033-0.039-1.585-0.138
			c-0.532-0.096-1.006-0.251-1.447-0.476c-0.452-0.23-0.864-0.53-1.224-0.889c-0.36-0.36-0.659-0.772-0.889-1.224
			c-0.224-0.441-0.38-0.914-0.476-1.447c-0.099-0.552-0.126-1.112-0.138-1.586c-0.007-0.25-0.01-0.5-0.011-0.75
			C0.45,17.909,0.45,17.629,0.45,17.348v-0.056l0-3.453v-2.513l0-3.453V7.817c0-0.281,0-0.562,0.002-0.843
			c0.002-0.25,0.004-0.5,0.011-0.75C0.476,5.749,0.502,5.19,0.601,4.638c0.096-0.533,0.251-1.006,0.476-1.447
			c0.23-0.453,0.529-0.864,0.889-1.224c0.36-0.36,0.771-0.659,1.224-0.889c0.441-0.225,0.914-0.38,1.446-0.476
			c0.552-0.099,1.111-0.126,1.585-0.139c0.25-0.007,0.5-0.01,0.75-0.011L7.735,0.45H7.87l3.451,0H13.843"/>
		<path id="__xF8FF__tv" fill="#F9F9F9" d="M7.272,9.561c-0.067-0.514,0.19-1.062,0.481-1.397c0.324-0.392,0.882-0.671,1.34-0.694
			c0.056,0.537-0.156,1.062-0.469,1.453C8.3,9.304,7.786,9.606,7.272,9.561z M9.767,12.292c-0.011-1.148,0.936-1.694,0.981-1.728
			c-0.535-0.791-1.371-0.88-1.66-0.903c-0.747-0.044-1.381,0.424-1.738,0.424c-0.357,0-0.903-0.401-1.493-0.39
			c-0.769,0.011-1.482,0.446-1.872,1.137c-0.802,1.383-0.212,3.434,0.568,4.56c0.379,0.557,0.835,1.17,1.437,1.148
			c0.568-0.022,0.791-0.368,1.482-0.368c0.69,0,0.891,0.368,1.493,0.357c0.624-0.011,1.014-0.557,1.393-1.115
			c0.435-0.635,0.613-1.248,0.624-1.282C10.97,14.121,9.778,13.663,9.767,12.292z M20.251,10.12l-1.577,5.1h-0.03l-1.577-5.1h-1.331
			l2.249,6.346h1.337l2.237-6.346H20.251z M13.842,8.605h-1.26v1.514h-0.933v1h0.933v3.689c0,1.224,0.491,1.708,1.751,1.708
			c0.285,0,0.575-0.024,0.721-0.055v-1.005c-0.085,0.012-0.303,0.03-0.436,0.03c-0.533,0-0.775-0.254-0.775-0.806v-3.562h1.217v-1
			h-1.217V8.605z"/>
	</g>
</g>
<g>
</g>
<g>
</g>
<g>
</g>
<g>
</g>
<g>
</g>
<g>
</g>
</svg>
